<svg width="14" height="14" viewBox="0 0 14 14" fill="none" xmlns="http://www.w3.org/2000/svg">
<path fill-rule="evenodd" clip-rule="evenodd" d="M6.13623 1.34603C5.68934 1.34603 5.30915 1.65658 5.20243 2.07514H8.79089C8.68417 1.65658 8.30398 1.34603 7.85709 1.34603H6.13623ZM9.80473 2.07502H11.1254C12.5261 2.07502 13.6667 3.22944 13.6667 4.64715C13.6667 4.64715 13.6266 5.24732 13.6133 6.0831C13.612 6.14926 13.58 6.21407 13.5273 6.25322C13.2064 6.49018 12.913 6.68596 12.8863 6.69946C11.7791 7.44208 10.4924 7.96461 9.12172 8.22452C9.03234 8.24207 8.9443 8.19549 8.89894 8.11583C8.51475 7.45018 7.79706 7.01676 6.99666 7.01676C6.2016 7.01676 5.47723 7.44545 5.0817 8.11178C5.03568 8.19009 4.94897 8.23532 4.86026 8.21844C3.50091 7.95786 2.21427 7.436 1.11372 6.70622L0.473398 6.26065C0.420038 6.22689 0.386688 6.16613 0.386688 6.09862C0.366678 5.75432 0.333328 4.64715 0.333328 4.64715C0.333328 3.22944 1.4739 2.07502 2.8746 2.07502H4.18859C4.31532 1.09612 5.13573 0.333252 6.13623 0.333252H7.85709C8.85759 0.333252 9.678 1.09612 9.80473 2.07502ZM13.4399 7.54354L13.4132 7.55704C12.0659 8.46168 10.4451 9.06252 8.74421 9.31231C8.50409 9.34606 8.26397 9.19079 8.19727 8.94775C8.05053 8.39417 7.57696 8.02961 7.01001 8.02961H7.00334H6.99C6.42305 8.02961 5.94948 8.39417 5.80274 8.94775C5.73604 9.19079 5.49592 9.34606 5.2558 9.31231C3.55495 9.06252 1.93414 8.46168 0.586795 7.55704C0.580125 7.55029 0.513425 7.50979 0.460065 7.54354C0.400035 7.5773 0.400035 7.65831 0.400035 7.65831L0.446725 11.1013C0.446725 12.519 1.58063 13.6667 2.98133 13.6667H11.012C12.4127 13.6667 13.5466 12.519 13.5466 11.1013L13.6 7.65831C13.6 7.65831 13.6 7.5773 13.5399 7.54354C13.5066 7.52329 13.4666 7.53004 13.4399 7.54354ZM7.49691 10.3722C7.49691 10.6557 7.2768 10.8785 6.99666 10.8785C6.72319 10.8785 6.49641 10.6557 6.49641 10.3722V9.50128C6.49641 9.22449 6.72319 8.99496 6.99666 8.99496C7.2768 8.99496 7.49691 9.22449 7.49691 9.50128V10.3722Z" fill="#374151"/>
</svg>
