<svg width="12" height="14" viewBox="0 0 12 14" fill="none" xmlns="http://www.w3.org/2000/svg">
<path d="M11.7467 4.63341C11.0467 1.55341 8.36 0.166748 6 0.166748C6 0.166748 6 0.166748 5.99334 0.166748C3.64 0.166748 0.946669 1.54675 0.246669 4.62675C-0.533331 8.06675 1.57334 10.9801 3.48 12.8134C4.18667 13.4934 5.09334 13.8334 6 13.8334C6.90667 13.8334 7.81334 13.4934 8.51334 12.8134C10.42 10.9801 12.5267 8.07341 11.7467 4.63341ZM6 7.97341C4.84 7.97341 3.9 7.03342 3.9 5.87341C3.9 4.71342 4.84 3.77341 6 3.77341C7.16 3.77341 8.1 4.71342 8.1 5.87341C8.1 7.03342 7.16 7.97341 6 7.97341Z" fill="#374151"/>
</svg>
